Coordinates
version=1
nRows=26
nColumns=24
inDegrees=yes

Units are S.I. units (second, meters, Newtons, ...)
Angles are in degrees.

endheader
time	pelvis_tilt	pelvis_list	pelvis_rotation	pelvis_tx	pelvis_ty	pelvis_tz	hip_flexion_r	hip_adduction_r	hip_rotation_r	knee_angle_r	ankle_angle_r	subtalar_angle_r	mtp_angle_r	hip_flexion_l	hip_adduction_l	hip_rotation_l	knee_angle_l	ankle_angle_l	subtalar_angle_l	mtp_angle_l	lumbar_extension	lumbar_bending	lumbar_rotation
      4.39000000	     -6.22095530	     -5.27270633	     -1.21466243	      0.71307997	      0.70010988	     -0.27370149	      6.90010725	     14.09333100	     14.45912139	     -9.43554831	     13.90371077	    -10.55239658	      0.00000000	     29.67853867	     -5.84613133	     -5.27457716	    -63.53376993	      8.20404830	     -8.80457615	      0.00000000	     -9.99396949	      4.61195153	     -3.92678492
      4.40000000	     -6.11654026	     -4.57472547	     -1.70688056	      0.72601856	      0.70232029	     -0.27384050	      4.42208058	     13.14464804	     15.89644930	     -7.28963970	     12.40751490	    -12.47080588	      0.00000000	     30.78323851	     -5.24433351	     -5.64374870	    -60.93843976	      8.31428431	    -10.07975334	      0.00000000	    -10.23019393	      3.61675793	     -3.47406488
      4.41000000	     -6.02620555	     -4.00122249	     -2.22958257	      0.73889623	      0.70398143	     -0.27409785	      2.13455106	     12.27531255	     16.89473121	     -5.40286652	     11.19335229	    -13.81867307	      0.00000000	     31.73299619	     -4.72139553	     -5.85208741	    -57.98131138	      8.26163344	    -11.29803170	      0.00000000	    -10.48032388	      2.82944876	     -3.08141916
      4.42000000	     -6.23471104	     -3.59708252	     -2.79812910	      0.75168271	      0.70474496	     -0.27438429	      0.44514375	     11.60957505	     17.07313568	     -3.98132431	     10.66401299	    -13.95919449	      0.00000000	     32.86318666	     -4.36076976	     -5.89344512	    -54.70516893	      7.97889741	    -12.60735992	      0.00000000	    -10.37447540	      2.28299432	     -2.75240285
      4.43000000	     -5.89239764	     -3.22577193	     -3.44243030	      0.76454599	      0.70581301	     -0.27454050	     -1.83178838	     10.92383998	     17.65319677	     -2.57673826	      9.70506935	    -14.84173750	      0.00000000	     33.06704169	     -4.05329182	     -5.90201905	    -50.88311174	      7.71918114	    -13.65429970	      0.00000000	    -11.03348980	      1.75262223	     -2.32118289
      4.44000000	     -6.00417392	     -3.02893534	     -4.12583386	      0.77734016	      0.70581094	     -0.27474739	     -3.41373405	     10.43815377	     17.96230127	     -1.56519041	      9.35839726	    -14.80877034	      0.00000000	     33.60005078	     -3.90302266	     -5.61748585	    -46.75238042	      7.29510400	    -14.74470477	      0.00000000	    -11.13351359	      1.49118744	     -1.94401791
      4.45000000	     -5.88513298	     -2.86104855	     -4.85847394	      0.79022154	      0.70569730	     -0.27484472	     -5.16131662	      9.94501857	     18.38431191	     -0.72093367	      9.10244192	    -14.81214897	      0.00000000	     33.55623276	     -3.79778554	     -5.20819123	    -42.09830338	      6.88978353	    -15.71396580	      0.00000000	    -11.55397922	      1.22627795	     -1.61496077
      4.46000000	     -5.66742016	     -2.76596945	     -5.56962986	      0.80324039	      0.70525258	     -0.27495546	     -6.94527072	      9.48243645	     18.95589405	     -0.03784678	      8.99786013	    -14.82886953	      0.00000000	     33.09075757	     -3.74249757	     -4.53800322	    -36.95534047	      6.54255155	    -16.59799002	      0.00000000	    -12.11816910	      1.04495239	     -1.36716371
      4.47000000	     -5.51859887	     -2.78635227	     -6.36122209	      0.81634161	      0.70437002	     -0.27499536	     -8.57202401	      9.10026577	     19.66546942	      0.44974593	      9.00884823	    -14.64476213	      0.00000000	     32.37779724	     -3.83943565	     -3.51676334	    -31.36688283	      5.94271453	    -17.66457475	      0.00000000	    -12.60315459	      1.00652621	     -1.06212430
      4.48000000	     -5.26062722	     -2.85213546	     -7.15224758	      0.82977695	      0.70320717	     -0.27499025	    -10.31122106	      8.69094796	     20.51238022	      0.86995427	      9.13680135	    -14.38323186	      0.00000000	     31.16599565	     -3.98968067	     -1.95933102	    -25.29603150	      5.03171130	    -19.12407312	      0.00000000	    -13.18042872	      0.98580836	     -0.82120874
      4.49000000	     -4.94996612	     -3.13327500	     -8.11126181	      0.84338882	      0.70168648	     -0.27472905	    -12.05813462	      8.43520278	     21.62675221	      1.08621518	      9.41433081	    -14.00024443	      0.00000000	     29.54268700	     -4.51955252	      0.18167432	    -18.89494493	      3.59763354	    -21.42738943	      0.00000000	    -13.83372663	      1.18119142	     -0.39738695
      4.50000000	     -4.56730099	     -3.71982712	     -9.08170673	      0.85726052	      0.69982380	     -0.27418526	    -13.91284738	      8.44849141	     22.79345289	      1.19866546	      9.62765945	    -13.46530018	      0.00000000	     27.60045253	     -5.57176518	      2.88218946	    -12.42991005	      1.49973879	    -24.50020833	      0.00000000	    -14.57698654	      1.65536004	      0.13943508
      4.51000000	     -4.40552193	     -4.66577397	    -10.07819474	      0.87127114	      0.69725453	     -0.27319669	    -15.51883072	      8.88508457	     23.95985940	      1.06782121	      9.91721628	    -12.75832977	      0.00000000	     25.95854806	     -7.31795112	      5.02296723	     -6.50688565	     -0.26065664	    -26.93024320	      0.00000000	    -15.06842012	      2.49275047	      0.79982187
      4.52000000	     -4.59785899	     -5.78281982	    -11.08587959	      0.88538195	      0.69409887	     -0.27204251	    -16.71398090	      9.54890351	     25.16950882	      0.71442290	     10.21123468	    -11.87695246	      0.00000000	     25.02468445	     -9.37056473	      5.64770132	     -1.63822598	     -0.64541220	    -27.13680666	      0.00000000	    -15.13718545	      3.56799977	      1.56188265
      4.53000000	     -4.65573621	     -6.84261846	    -11.84765894	      0.89985351	      0.69103400	     -0.27129402	    -18.02556208	     10.13614027	     26.04230583	      0.27103918	     10.50260926	    -10.83618089	      0.00000000	     24.16090974	    -11.12899123	      5.81855457	      2.33890409	     -0.51251646	    -26.58470918	      0.00000000	    -15.33495576	      4.59530125	      2.09318757
      4.54000000	     -4.58785510	     -7.66441552	    -12.51815221	      0.91474987	      0.68829514	     -0.27083593	    -19.34751674	     10.43551353	     26.57361410	     -0.34415070	     10.89466531	     -9.38594147	      0.00000000	     23.34968363	    -12.40114506	      5.44743949	      5.32283952	      0.19515922	    -25.29445268	      0.00000000	    -15.58572711	      5.34366864	      2.56355027
      4.55000000	     -4.43882518	     -8.22507169	    -12.96243979	      0.93004651	      0.68588904	     -0.27081139	    -20.54177831	     10.52175709	     26.51602978	     -1.23016010	     11.29125199	     -7.54200542	      0.00000000	     22.70916534	    -13.11345955	      5.08743247	      7.21979352	      1.18971283	    -23.81439068	      0.00000000	    -15.80984668	      5.82262082	      2.84956186
      4.56000000	     -4.24832400	     -8.50036046	    -13.14868958	      0.94568626	      0.68377305	     -0.27117165	    -21.46501486	     10.45421823	     25.68643994	     -2.52858224	     11.77479773	     -5.21386215	      0.00000000	     22.29037817	    -13.29779611	      5.24438234	      8.05513433	      2.00259972	    -22.94438360	      0.00000000	    -15.95175310	      5.99616018	      2.84908602
      4.57000000	     -4.07006542	     -8.50176279	    -13.15532686	      0.96165056	      0.68199240	     -0.27184611	    -21.99322385	     10.25203094	     24.09635563	     -4.34414684	     12.15215917	     -2.44674066	      0.00000000	     22.11155201	    -13.02636155	      5.95626891	      7.91146746	      2.31919539	    -23.05682271	      0.00000000	    -15.94761476	      5.89293428	      2.69866178
      4.58000000	     -3.91614426	     -8.26855863	    -13.09790403	      0.97772686	      0.68061803	     -0.27271484	    -21.97574327	      9.92908636	     21.73953728	     -6.91143477	     12.46085079	      0.89240698	      0.00000000	     22.17273987	    -12.39258508	      7.03386371	      6.84231480	      2.14509900	    -23.89897935	      0.00000000	    -15.86095407	      5.52405496	      2.54953399
      4.59000000	     -3.65923618	     -7.73002807	    -12.81862167	      0.99402658	      0.67969790	     -0.27402409	    -21.54601608	      9.35461001	     18.58974990	    -10.13461042	     12.36036412	      4.35871262	      0.00000000	     22.39098008	    -11.21179988	      8.32373739	      4.94179735	      1.56532125	    -25.05798359	      0.00000000	    -15.80809946	      4.82119851	      2.15487379
      4.60000000	     -3.37971492	     -6.84901126	    -12.51344700	      1.01043662	      0.67916555	     -0.27554851	    -20.59079653	      8.37940271	     15.14291576	    -14.06135418	     11.74646183	      7.67122040	      0.00000000	     22.78761422	     -9.53675361	      9.39142102	      2.36277035	      0.62797463	    -26.22259581	      0.00000000	    -15.70171067	      3.71698617	      1.69205059
      4.61000000	     -3.00190738	     -5.69161258	    -12.12288743	      1.02684467	      0.67903198	     -0.27731601	    -19.28738730	      7.02634892	     11.83933616	    -18.52281286	     10.32116881	     10.36286748	      0.00000000	     23.28218421	     -7.42976127	     10.09480628	     -0.75073110	     -0.48620661	    -26.99666878	      0.00000000	    -15.69144502	      2.27423338	      1.16581471
      4.62000000	     -2.47579366	     -4.24330938	    -11.70547641	      1.04329131	      0.67924798	     -0.27904259	    -17.75922692	      5.28614047	      9.00696832	    -23.40856532	      8.06232560	     12.12054752	      0.00000000	     23.71535915	     -4.96777929	     10.25079241	     -4.13855466	     -1.52354192	    -27.19295608	      0.00000000	    -15.81422008	      0.41325970	      0.50420667
      4.63000000	     -2.27753685	     -2.84865146	    -11.29822121	      1.05921959	      0.67922964	     -0.28083024	    -15.42090129	      3.61375368	      6.64934887	    -28.87088100	      5.01298878	     13.21690899	      0.00000000	     24.63188564	     -2.64198353	      9.98043659	     -7.78255525	     -2.18364423	    -26.59382241	      0.00000000	    -15.70635255	     -1.28079981	     -0.09203391
      4.64000000	     -1.91466543	     -1.35143471	    -11.03192452	      1.07480707	      0.67944844	     -0.28217026	    -12.92468288	      1.78607990	      5.07514783	    -34.59312051	      1.38736923	     13.52666963	      0.00000000	     25.30312388	     -0.37887775	      8.80164238	    -11.29633331	     -2.14987581	    -25.04100945	      0.00000000	    -15.86871263	     -3.23363121	     -0.63941652
